<svg width="87" height="74" viewBox="0 0 87 74" fill="none" xmlns="http://www.w3.org/2000/svg">
<path d="M82.929 24.6418C72.9775 9.00372 58.4165 0 43.08 0C35.4118 0 27.9589 2.24016 21.1523 6.41892C14.3456 10.6408 8.22828 16.8012 3.231 24.6418C-1.077 31.4054 -1.077 42.3908 3.231 49.1543C13.1825 64.8354 27.7435 73.7961 43.08 73.7961C50.7482 73.7961 58.2011 71.5559 65.0077 67.3772C71.8144 63.1553 77.9317 56.9949 82.929 49.1543C87.237 42.4338 87.237 31.4054 82.929 24.6418ZM43.08 54.3239C33.4301 54.3239 25.6757 46.5264 25.6757 36.9196C25.6757 27.3127 33.4301 19.5152 43.08 19.5152C52.7299 19.5152 60.4843 27.3127 60.4843 36.9196C60.4843 46.5264 52.7299 54.3239 43.08 54.3239Z" fill="#292D32"/>
<path d="M43.0731 24.6027C36.3095 24.6027 30.7955 30.1169 30.7955 36.9235C30.7955 43.6871 36.3095 49.2013 43.0731 49.2013C49.8367 49.2013 55.394 43.6871 55.394 36.9235C55.394 30.16 49.8367 24.6027 43.0731 24.6027Z" fill="#292D32"/>
</svg>
