<svg width="94" height="81" viewBox="0 0 94 81" fill="none" xmlns="http://www.w3.org/2000/svg">
<path d="M62.8416 40.4541C62.8416 49.1713 55.7973 56.2155 47.0801 56.2155C38.3628 56.2155 31.3188 49.1713 31.3188 40.4541C31.3188 31.7368 38.3628 24.6927 47.0801 24.6927C55.7973 24.6927 62.8416 31.7368 62.8416 40.4541Z" stroke="#292D32" stroke-width="6.60398" stroke-linecap="round" stroke-linejoin="round"/>
<path d="M47.0801 76.864C62.6214 76.864 77.1061 67.7065 87.1882 51.8569C91.1506 45.6492 91.1506 35.2149 87.1882 29.0071C77.1061 13.1575 62.6214 4 47.0801 4C31.5386 4 17.0539 13.1575 6.97179 29.0071C3.0094 35.2149 3.0094 45.6492 6.97179 51.8569C17.0539 67.7065 31.5386 76.864 47.0801 76.864Z" stroke="#292D32" stroke-width="6.60398" stroke-linecap="round" stroke-linejoin="round"/>
</svg>
