<svg width="77" height="70" viewBox="0 0 77 70" fill="none" xmlns="http://www.w3.org/2000/svg">
    <path
        d="M72.1261 0.0043373C70.798 0.0512133 69.5792 0.754337 68.8761 1.87934L31.2511 59.4418L6.87612 38.3793C5.82925 37.2934 4.25893 36.8871 2.81362 37.3403C1.37612 37.7856 0.305811 39.0043 0.0558106 40.4887C-0.194189 41.9809 0.407372 43.4809 1.62612 44.3793L29.5011 68.5043C30.3761 69.2465 31.5324 69.5746 32.6652 69.4106C33.8058 69.2387 34.8136 68.5903 35.4386 67.6293L75.6261 6.25434C76.4855 4.99653 76.5558 3.37153 75.8136 2.0434C75.0714 0.723088 73.6417 -0.0659747 72.1261 0.0043373Z"
        fill="black" />
</svg>