<svg width="76" height="76" viewBox="0 0 76 76" fill="none" xmlns="http://www.w3.org/2000/svg">
<path fill-rule="evenodd" clip-rule="evenodd" d="M0.5 30.7083C0.5 14.0741 14.0741 0.5 30.7083 0.5C47.3426 0.5 60.9167 14.0741 60.9167 30.7083C60.9167 37.5274 58.6105 43.8102 54.7725 48.8765L74.2793 68.3874C74.6792 68.7713 74.9985 69.2312 75.2184 69.74C75.4383 70.2489 75.5545 70.7966 75.5602 71.3509C75.5658 71.9052 75.4608 72.4551 75.2512 72.9684C75.0417 73.4816 74.7319 73.9479 74.3399 74.3399C73.9479 74.7319 73.4816 75.0417 72.9684 75.2512C72.4551 75.4608 71.9052 75.5658 71.3509 75.5602C70.7966 75.5545 70.2489 75.4383 69.74 75.2184C69.2312 74.9985 68.7713 74.6792 68.3874 74.2793L48.8765 54.7725C43.8102 58.6105 37.5274 60.9167 30.7083 60.9167C14.0741 60.9167 0.5 47.3426 0.5 30.7083ZM52.5833 30.7083C52.5833 18.5777 42.8389 8.83333 30.7083 8.83333C18.5777 8.83333 8.83333 18.5777 8.83333 30.7083C8.83333 42.8389 18.5777 52.5833 30.7083 52.5833C36.5369 52.5833 41.8002 50.3175 45.7108 46.6344C45.97 46.2764 46.2845 45.9618 46.6426 45.7026C50.321 41.7929 52.5833 36.5327 52.5833 30.7083Z" fill="black"/>
</svg>
