<svg width="84" height="84" viewBox="0 0 84 84" fill="none" xmlns="http://www.w3.org/2000/svg">
<path d="M41.6667 0C18.6918 0 0 18.6918 0 41.6667C0 64.6415 18.6918 83.3333 41.6667 83.3333C64.6415 83.3333 83.3333 64.6415 83.3333 41.6667C83.3333 18.6918 64.6415 0 41.6667 0ZM41.6667 6.25C61.2638 6.25 77.0833 22.0696 77.0833 41.6667C77.0833 61.2638 61.2638 77.0833 41.6667 77.0833C22.0696 77.0833 6.25 61.2638 6.25 41.6667C6.25 22.0696 22.0696 6.25 41.6667 6.25ZM41.6667 20.8333C40.5616 20.8333 39.5018 21.2723 38.7204 22.0537C37.939 22.8351 37.5 23.8949 37.5 25C37.5 26.1051 37.939 27.1649 38.7204 27.9463C39.5018 28.7277 40.5616 29.1667 41.6667 29.1667C42.7717 29.1667 43.8315 28.7277 44.6129 27.9463C45.3943 27.1649 45.8333 26.1051 45.8333 25C45.8333 23.8949 45.3943 22.8351 44.6129 22.0537C43.8315 21.2723 42.7717 20.8333 41.6667 20.8333ZM41.6178 35.3719C40.7897 35.3848 40.0006 35.7259 39.4239 36.3203C38.8471 36.9146 38.5298 37.7136 38.5417 38.5417V61.4583C38.5358 61.8724 38.6123 62.2836 38.7667 62.6678C38.9212 63.0521 39.1504 63.4019 39.4412 63.6968C39.7319 63.9917 40.0784 64.2259 40.4605 64.3857C40.8425 64.5455 41.2525 64.6278 41.6667 64.6278C42.0808 64.6278 42.4908 64.5455 42.8729 64.3857C43.2549 64.2259 43.6014 63.9917 43.8922 63.6968C44.1829 63.4019 44.4122 63.0521 44.5666 62.6678C44.721 62.2836 44.7975 61.8724 44.7917 61.4583V38.5417C44.7977 38.1234 44.7196 37.7082 44.5622 37.3206C44.4048 36.9331 44.1712 36.5811 43.8752 36.2855C43.5792 35.9899 43.2269 35.7567 42.8392 35.5998C42.4514 35.4429 42.0361 35.3654 41.6178 35.3719Z" fill="black"/>
</svg>
